<svg width="16" height="16" viewBox="0 0 16 16" fill="none" xmlns="http://www.w3.org/2000/svg">
<path fill-rule="evenodd" clip-rule="evenodd" d="M3.63259 15.2935V4.97447H0.202753V15.2935H3.63259ZM1.91766 3.56559C3.11371 3.56559 3.85816 2.7732 3.85816 1.78295C3.83587 0.770412 3.11371 1.52588e-05 1.94035 1.52588e-05C0.767102 1.52588e-05 0 0.770412 0 1.78295C0 2.7732 0.744285 3.56559 1.8953 3.56559H1.91759H1.91766Z" fill="white"/>
<path fill-rule="evenodd" clip-rule="evenodd" d="M5.53052 15.2935H8.96033V9.5309C8.96033 9.22249 8.98262 8.9144 9.07318 8.69393C9.32113 8.07774 9.88548 7.43956 10.833 7.43956C12.0741 7.43956 12.5705 8.38584 12.5705 9.77304V15.2935H16.0001V9.3767C16.0001 6.20717 14.308 4.73233 12.0514 4.73233C10.2011 4.73233 9.38882 5.76655 8.93751 6.47099H8.96042V4.97447H5.53061C5.57562 5.94273 5.53061 15.2935 5.53061 15.2935H5.53052Z" fill="white"/>
</svg>
