<svg width="42" height="42" viewBox="0 0 42 42" fill="none" xmlns="http://www.w3.org/2000/svg">
<g clip-path="url(#clip0_305_72025)">
<path d="M29.7061 12.1895L15.58 27.8493L11.1001 22.9253C10.8848 22.6563 10.5955 22.515 10.2323 22.5016C9.86907 22.4881 9.55291 22.6025 9.28384 22.8446C9.04168 23.0868 8.90714 23.3895 8.88024 23.7527C8.85333 24.116 8.97441 24.4187 9.24348 24.6608L14.4096 30.4324C14.5441 30.5938 14.6988 30.7149 14.8737 30.7956C15.0486 30.8763 15.2303 30.9167 15.4186 30.9167C15.4724 30.9167 15.4993 30.9167 15.4993 30.9167C15.4993 30.9167 15.5262 30.9167 15.58 30.9167C15.607 30.9167 15.6204 30.9167 15.6204 30.9167C15.8088 30.9167 15.9971 30.8763 16.1854 30.7956C16.3738 30.7149 16.5352 30.6073 16.6698 30.4727L31.6434 13.9654C31.8587 13.6963 31.9663 13.3801 31.9663 13.0169C31.9663 12.6537 31.8318 12.3644 31.5627 12.1492C31.2936 11.8801 30.9842 11.759 30.6344 11.7859C30.2846 11.8128 29.9752 11.9473 29.7061 12.1895ZM20.6654 0.525391C17.8133 0.525391 15.1361 1.06353 12.6337 2.1398C10.1314 3.24298 7.94522 4.72959 6.0752 6.59961C4.20517 8.46964 2.71857 10.6558 1.61539 13.1582C0.539114 15.6605 0.000976562 18.3377 0.000976562 21.1899C0.000976562 24.0151 0.539114 26.6923 1.61539 29.2215C2.71857 31.7239 4.20517 33.9101 6.0752 35.7801C7.94522 37.6501 10.1314 39.1233 12.6337 40.1995C15.1361 41.3027 17.8133 41.8543 20.6654 41.8543C23.5176 41.8543 26.1948 41.3027 28.6971 40.1995C31.1995 39.1233 33.3857 37.6501 35.2557 35.7801C37.1257 33.9101 38.6123 31.7239 39.7155 29.2215C40.7918 26.6923 41.3299 24.0151 41.3299 21.1899C41.3299 18.3377 40.7918 15.6605 39.7155 13.1582C38.6123 10.6558 37.1257 8.46964 35.2557 6.59961C33.3857 4.72959 31.1995 3.24298 28.6971 2.1398C26.1948 1.06353 23.5176 0.525391 20.6654 0.525391ZM20.6654 39.2713C18.19 39.2713 15.8491 38.7869 13.6428 37.8183C11.4633 36.8765 9.55291 35.585 7.91159 33.9437C6.27027 32.3024 4.96529 30.392 3.99664 28.2125C3.0549 26.0062 2.58403 23.6653 2.58403 21.1899C2.58403 18.6875 3.0549 16.3466 3.99664 14.1672C4.96529 11.9608 6.26355 10.0437 7.89141 8.41582C9.51928 6.78796 11.4364 5.4897 13.6428 4.52106C15.8491 3.57932 18.19 3.10845 20.6654 3.10845C23.1409 3.10845 25.4818 3.57932 27.6881 4.52106C29.8676 5.4628 31.778 6.75433 33.4193 8.39565C35.0606 10.037 36.3656 11.9608 37.3342 14.1672C38.276 16.3466 38.7468 18.6875 38.7468 21.1899C38.7468 23.6653 38.276 26.0062 37.3342 28.2125C36.3656 30.392 35.0673 32.3024 33.4395 33.9437C31.8116 35.585 29.8945 36.8765 27.6881 37.8183C25.4818 38.7869 23.1409 39.2713 20.6654 39.2713Z" fill="url(#paint0_linear_305_72025)"/>
</g>
<defs>
<linearGradient id="paint0_linear_305_72025" x1="20.6654" y1="41.8543" x2="20.6654" y2="0.525391" gradientUnits="userSpaceOnUse">
<stop stop-color="#0080FF"/>
<stop offset="1" stop-color="#1761AB"/>
</linearGradient>
<clipPath id="clip0_305_72025">
<rect width="41.3289" height="41.3289" fill="white" transform="matrix(1 0 0 -1 0 41.3289)"/>
</clipPath>
</defs>
</svg>
