<svg width="55" height="26" viewBox="0 0 55 26" fill="none" xmlns="http://www.w3.org/2000/svg">
<path d="M1.47549 14.478H39.6048C40.4162 14.478 41.0801 13.8141 41.0801 13.0026C41.0801 12.1912 40.4162 11.5273 39.6048 11.5273H1.47549C0.664074 11.5273 0.00018692 12.1912 0.00018692 13.0026C0.00018692 13.8141 0.664074 14.478 1.47549 14.478Z" fill="#333333"/>
<path fill-rule="evenodd" clip-rule="evenodd" d="M52.9964 11.5273C52.185 11.5273 51.5211 12.1912 51.5211 13.0026C51.5211 13.8141 52.185 14.478 52.9964 14.478C53.8078 14.478 54.4717 13.8141 54.4717 13.0026C54.4717 12.1912 53.8152 11.5273 52.9964 11.5273Z" fill="#333333"/>
<path d="M46.302 14.478C45.4872 14.478 44.8267 13.8174 44.8267 13.0026C44.8267 12.1879 45.4872 11.5273 46.302 11.5273C47.1168 11.5273 47.7773 12.1879 47.7773 13.0026C47.7773 13.8174 47.1168 14.478 46.302 14.478Z" fill="#333333"/>
<path d="M11.2789 26C11.5599 25.9976 11.8344 25.9153 12.0704 25.7628C12.3064 25.6103 12.4941 25.3937 12.6117 25.1385C12.7292 24.8833 12.7718 24.5999 12.7343 24.3214C12.6969 24.0429 12.581 23.7808 12.4001 23.5657L3.41553 13.0026L12.4001 2.43199C12.9313 1.81236 12.8501 0.882919 12.2305 0.351808C11.6109 -0.179302 10.6814 -0.0981573 10.1503 0.521471L0.354275 12.0436C-0.110446 12.5968 -0.110446 13.4009 0.354275 13.9541L10.1503 25.4836C10.4454 25.8303 10.8585 26 11.2789 26Z" fill="#333333"/>
</svg>
