<svg width="33" height="25" viewBox="0 0 33 25" fill="none" xmlns="http://www.w3.org/2000/svg">
<path d="M32.9283 5.63624L29.0902 17.2891C28.8033 18.1189 28.05 18.6722 27.1533 18.6722H12.3391C11.4783 18.6722 10.6533 18.1535 10.3663 17.3928L4.69891 2.76625H1.43478C0.645652 2.76625 0 2.14385 0 1.38313C0 0.622407 0.645652 0 1.43478 0H5.70326C6.31304 0 6.85109 0.38036 7.0663 0.93361L12.913 15.9059H26.5435L29.5924 6.56985H12.6978C11.9087 6.56985 11.263 5.94744 11.263 5.18672C11.263 4.426 11.9087 3.8036 12.6978 3.8036H31.5652C32.0315 3.8036 32.462 4.04564 32.713 4.39142C33 4.73721 33.0717 5.2213 32.9283 5.63624ZM13.0565 20.5048C12.4467 20.5048 11.837 20.7469 11.4065 21.1618C10.9761 21.5768 10.725 22.1646 10.725 22.7524C10.725 23.3402 10.9761 23.9281 11.4065 24.343C11.837 24.758 12.4467 25 13.0565 25C13.6663 25 14.2761 24.758 14.7065 24.343C15.137 23.9281 15.388 23.3402 15.388 22.7524C15.388 22.1646 15.137 21.5768 14.7065 21.1618C14.2761 20.7469 13.6663 20.5048 13.0565 20.5048ZM25.9337 20.5048C25.3239 20.5048 24.7141 20.7469 24.2837 21.1618C23.8533 21.5768 23.6022 22.1646 23.6022 22.7524C23.6022 23.3402 23.8533 23.9281 24.2837 24.343C24.7141 24.758 25.3239 25 25.9337 25C26.5435 25 27.1533 24.758 27.5837 24.343C28.0141 23.9281 28.2652 23.3402 28.2652 22.7524C28.2652 22.1646 28.0141 21.5768 27.5837 21.1618C27.1533 20.7469 26.5435 20.5048 25.9337 20.5048Z" fill="#FFA1AC"/>
</svg>
