<svg width="56" height="56" viewBox="0 0 56 56" fill="none" xmlns="http://www.w3.org/2000/svg">
<path d="M51.9389 4.38042C51.932 2.12789 51.4649 0 49.2052 0C49.1402 0 49.0786 0.014703 49.0154 0.0195591C48.7594 0.00337225 48.4922 0.0133541 48.2018 0.0876786C32.2262 4.1797 17.7227 12.8603 4.8593 22.9885C4.13629 23.5581 3.93005 24.2523 4.04659 24.9054C3.99655 25.2528 3.96579 25.6 3.96512 25.952C3.96444 26.7425 4.36008 27.4493 4.95561 27.9004C5.03345 28.0063 5.10979 28.1124 5.21015 28.2138C16.7519 39.8542 30.1941 50.2534 45.747 55.8495C46.2525 56.0308 46.7033 56.0358 47.0985 55.9304C48.0252 55.9161 48.9411 55.8454 49.8595 55.6742C51.0165 55.4591 51.7193 54.2194 51.6461 53.1035C51.6474 53.0528 51.6603 53.0083 51.6603 52.9562C51.6603 38.228 52.4441 23.5094 51.7445 8.78567C51.6979 7.798 51.9444 6.05506 51.9389 4.38042ZM46.7604 51.0035C32.5153 45.8073 20.1655 36.1719 9.50275 25.5541C20.6269 16.9557 33.1174 9.59381 46.6537 5.60857C47.6441 20.7272 46.8523 35.8684 46.7604 51.0035Z" fill="#B3D0FD"/>
</svg>
