<svg width="38" height="27" viewBox="0 0 38 27" fill="none" xmlns="http://www.w3.org/2000/svg">
<path d="M34.3945 0.612116C34.1497 0.230577 33.7264 0 33.2733 0H24.0046C21.7984 0 20.0038 1.79461 20.0038 4.00076V13.3359C20.0038 15.542 21.7984 17.3366 24.0046 17.3366H26.6523C25.4138 20.9233 24.3562 22.641 20.8373 24.1074C20.25 24.3522 19.9178 24.9773 20.0429 25.6011C20.1678 26.2238 20.7149 26.6717 21.3505 26.6717C21.3518 26.6717 21.3518 26.6717 21.3531 26.6717C28.6944 26.6587 32.9113 23.7154 35.9015 16.5214C36.8559 14.2618 37.3404 11.8434 37.3404 9.33511C37.3404 5.47757 36.1735 3.37691 34.3945 0.612116ZM13.2695 0H4.00076C1.79461 0 0 1.79461 0 4.00076V13.3359C0 15.542 1.79461 17.3366 4.00076 17.3366H6.64846C5.40996 20.9233 4.35243 22.641 0.833492 24.1074C0.24618 24.3522 -0.0860164 24.9773 0.0390741 25.6011C0.164031 26.2238 0.711068 26.6717 1.34666 26.6717C1.34799 26.6717 1.34799 26.6717 1.34932 26.6717C8.69058 26.6587 12.9075 23.7154 15.8977 16.5214C16.8521 14.2618 17.3366 11.8434 17.3366 9.33511C17.3366 5.47757 16.1697 3.37691 14.3907 0.612116C14.1459 0.230577 13.7226 0 13.2695 0Z" fill="#FF9560"/>
</svg>
