<svg width="38" height="27" viewBox="0 0 38 27" fill="none" xmlns="http://www.w3.org/2000/svg">
<path d="M2.94589 0.612116C3.19073 0.230577 3.61402 0 4.06717 0H13.3359C15.542 0 17.3366 1.79461 17.3366 4.00076V13.3359C17.3366 15.542 15.542 17.3366 13.3359 17.3366H10.6882C11.9267 20.9233 12.9842 22.641 16.5031 24.1074C17.0904 24.3522 17.4226 24.9773 17.2975 25.6011C17.1726 26.2238 16.6256 26.6717 15.99 26.6717C15.9886 26.6717 15.9886 26.6717 15.9873 26.6717C8.64604 26.6587 4.4291 23.7154 1.43894 16.5214C0.484489 14.2618 -3.8147e-06 11.8434 -3.8147e-06 9.33511C-3.8147e-06 5.47757 1.16689 3.37691 2.94589 0.612116ZM24.071 0H33.3397C35.5458 0 37.3404 1.79461 37.3404 4.00076V13.3359C37.3404 15.542 35.5458 17.3366 33.3397 17.3366H30.692C31.9305 20.9233 32.988 22.641 36.5069 24.1074C37.0942 24.3522 37.4264 24.9773 37.3013 25.6011C37.1764 26.2238 36.6294 26.6717 35.9938 26.6717C35.9924 26.6717 35.9924 26.6717 35.9911 26.6717C28.6498 26.6587 24.4329 23.7154 21.4427 16.5214C20.4883 14.2618 20.0038 11.8434 20.0038 9.33511C20.0038 5.47757 21.1707 3.37691 22.9497 0.612116C23.1945 0.230577 23.6178 0 24.071 0Z" fill="#FF9560"/>
</svg>
