<svg width="56" height="56" viewBox="0 0 56 56" fill="none" xmlns="http://www.w3.org/2000/svg">
<path d="M4.06115 4.38042C4.06804 2.12789 4.53513 0 6.79485 0C6.85986 0 6.92146 0.014703 6.98463 0.0195591C7.24061 0.00337225 7.50784 0.0133541 7.79825 0.0876786C23.7738 4.1797 38.2773 12.8603 51.1407 22.9885C51.8637 23.5581 52.07 24.2523 51.9534 24.9054C52.0035 25.2528 52.0342 25.6 52.0349 25.952C52.0356 26.7425 51.64 27.4493 51.0444 27.9004C50.9666 28.0063 50.8902 28.1124 50.7899 28.2138C39.2481 39.8542 25.8059 50.2534 10.253 55.8495C9.74755 56.0308 9.29676 56.0358 8.90151 55.9304C7.97482 55.9161 7.05894 55.8454 6.14049 55.6742C4.98353 55.4591 4.28073 54.2194 4.35397 53.1035C4.35263 53.0528 4.33969 53.0083 4.33969 52.9562C4.33969 38.228 3.55597 23.5094 4.25552 8.78567C4.30217 7.798 4.0556 6.05506 4.06115 4.38042ZM9.23958 51.0035C23.4847 45.8073 35.8345 36.1719 46.4973 25.5541C35.3732 16.9557 22.8826 9.59381 9.34637 5.60857C8.3559 20.7272 9.14769 35.8684 9.23958 51.0035Z" fill="#FFA1AC"/>
</svg>
