<svg width="19" height="15" viewBox="0 0 19 15" fill="none" xmlns="http://www.w3.org/2000/svg">
<path d="M18.0354 1.7098C17.3599 2.0042 16.6434 2.19736 15.9098 2.28284C16.6823 1.82736 17.2602 1.1109 17.5355 0.267053C16.8091 0.690843 16.0144 0.989272 15.1858 1.14944C14.6281 0.565024 13.8902 0.177917 13.0863 0.0480957C12.2825 -0.0817253 11.4576 0.0529867 10.7394 0.43136C10.0212 0.809733 9.44986 1.41064 9.11391 2.14098C8.77796 2.87132 8.69614 3.69031 8.88112 4.47105C7.41002 4.39873 5.97081 4.02274 4.65695 3.3675C3.34308 2.71226 2.18393 1.79241 1.25475 0.667675C0.782002 1.46922 0.637155 2.41786 0.849646 3.32074C1.06214 4.22362 1.61602 5.01299 2.3987 5.52839C1.81147 5.50984 1.23726 5.35335 0.72399 5.07198C0.72399 5.0872 0.72399 5.10241 0.72399 5.11762C0.723666 5.95877 1.01907 6.77412 1.56008 7.42531C2.10108 8.07651 2.85436 8.52343 3.69209 8.69026C3.14691 8.83652 2.57496 8.8582 2.01996 8.75365C2.25843 9.47521 2.71971 10.1056 3.3395 10.5569C3.95928 11.0082 4.70671 11.258 5.47759 11.2715C4.16677 12.2843 2.54774 12.8336 0.881155 12.8309C0.586933 12.8352 0.292707 12.8225 0 12.7928C1.69084 13.8619 3.65853 14.4296 5.66825 14.4283C12.4753 14.4283 16.1957 8.88043 16.1957 4.06789C16.1957 3.91069 16.1957 3.75348 16.1957 3.59627C16.9179 3.07991 17.5408 2.44111 18.0354 1.7098Z" fill="white"/>
</svg>
