<svg width="88" height="70" viewBox="0 0 88 70" fill="none" xmlns="http://www.w3.org/2000/svg">
<path d="M32.0759 0C28.3569 0 25.272 3.08491 25.272 6.80457V9.72007H6.80388C3.08491 9.72007 0 12.805 0 16.5246V51.5169C0 55.2359 3.08491 58.3208 6.80388 58.3208H11.6639V67.0692C11.6605 67.7981 11.9297 68.5025 12.4199 69.0422C12.9094 69.5826 13.5841 69.9196 14.3096 69.9874C15.0358 70.0552 15.7606 69.8484 16.3416 69.4077L31.1347 58.3207H55.4036C58.6581 58.3207 61.415 55.966 62.0557 52.8837L71.1384 59.6876C71.7194 60.1283 72.4442 60.3351 73.1704 60.2673C73.8959 60.1995 74.5705 59.8625 75.0601 59.3221C75.5503 58.7824 75.8195 58.078 75.8161 57.3491V48.6007H80.6761C84.3951 48.6007 87.48 45.5158 87.48 41.7968V6.80457C87.48 3.08491 84.3951 0 80.6761 0H32.0759ZM32.0759 5.83239H80.6763C81.2648 5.83239 81.6479 6.21547 81.6479 6.80468V41.797C81.6479 42.3855 81.2648 42.7692 80.6763 42.7692H72.9C72.1264 42.7692 71.3853 43.0764 70.8382 43.6235C70.291 44.17 69.9839 44.9118 69.9839 45.6854V51.5171L62.2076 45.6854V16.5252C62.2076 12.8055 59.1227 9.72061 55.4038 9.72061H31.1036V6.80511C31.1036 6.21592 31.4873 5.83283 32.0759 5.83283L32.0759 5.83239ZM6.80371 15.5525H55.4041C55.9926 15.5525 56.3764 15.9355 56.3764 16.5248V51.517C56.3764 52.1055 55.9926 52.4893 55.4041 52.4893H30.1319C29.4973 52.4846 28.8789 52.6873 28.3698 53.0663L17.4958 61.2371V55.4054C17.4958 54.6318 17.1887 53.89 16.6415 53.3435C16.0943 52.7963 15.3532 52.4892 14.5796 52.4892H6.80338C6.21486 52.4892 5.83177 52.1054 5.83177 51.5169V16.5246C5.83177 15.9354 6.21484 15.5523 6.80338 15.5523L6.80371 15.5525ZM17.4961 30.1326C15.3489 30.1326 13.6078 31.873 13.6078 34.0203C13.6078 36.1675 15.3489 37.9086 17.4961 37.9086C19.6434 37.9086 21.3838 36.1675 21.3838 34.0203C21.3838 31.873 19.6434 30.1326 17.4961 30.1326ZM31.1039 30.1326C28.9566 30.1326 27.2162 31.873 27.2162 34.0203C27.2162 36.1675 28.9566 37.9086 31.1039 37.9086C33.2512 37.9086 34.9923 36.1675 34.9923 34.0203C34.9923 31.873 33.2512 30.1326 31.1039 30.1326ZM44.7123 30.1326C42.5651 30.1326 40.824 31.873 40.824 34.0203C40.824 36.1675 42.5651 37.9086 44.7123 37.9086C46.8596 37.9086 48.6 36.1675 48.6 34.0203C48.6 31.873 46.8596 30.1326 44.7123 30.1326Z" fill="white"/>
</svg>
