<svg width="70" height="70" viewBox="0 0 70 70" fill="none" xmlns="http://www.w3.org/2000/svg">
<path fill-rule="evenodd" clip-rule="evenodd" d="M37.9153 20.416C37.9153 18.8052 36.6097 17.4996 34.9989 17.4996C33.388 17.4996 32.0824 18.8052 32.0824 20.416V37.9158C32.0824 38.6898 32.3895 39.4314 32.9364 39.9783L41.6863 48.7282C42.8255 49.8674 44.6721 49.8674 45.8113 48.7282C46.9504 47.5891 46.9504 45.7424 45.8113 44.6038L37.9153 36.7079V20.416ZM55.6214 55.6219C50.1132 61.1311 42.7878 64.1653 34.9991 64.1653C27.2087 64.1653 19.8843 61.1312 14.3768 55.6219C8.86766 50.1137 5.83344 42.7895 5.83344 34.9996C5.83344 27.2102 8.86753 19.886 14.3768 14.3773C19.885 8.86815 27.2092 5.83394 34.9991 5.83394C42.7885 5.83394 50.114 8.86803 55.6214 14.3773C61.1306 19.8865 64.1648 27.211 64.1648 34.9996C64.1648 42.79 61.1307 50.1145 55.6214 55.6219ZM34.9991 0C25.6496 0 16.8618 3.64109 10.2519 10.2528C3.64109 16.8621 0 25.6514 0 35C0 44.3486 3.64109 53.1373 10.2519 59.7472C16.8622 66.359 25.6505 70 34.9991 70C44.3472 70 53.1352 66.3589 59.7464 59.7472C66.3582 53.1379 69.9991 44.3486 69.9991 35C69.9991 25.6514 66.358 16.8627 59.7472 10.2528C53.1359 3.64096 44.3474 0 35 0H34.9991Z" fill="#FFA1AC"/>
</svg>
