<svg width="62" height="70" viewBox="0 0 62 70" fill="none" xmlns="http://www.w3.org/2000/svg">
<path d="M44.8426 69.9994H8.38629C3.79599 69.9994 0.000615736 66.204 0.000615736 61.6137L0 8.38568C0 3.79538 3.79538 0 8.38568 0H44.7537C49.344 0 53.1394 3.79538 53.1394 8.38568V61.6137C53.2281 66.2921 49.4326 70 44.8423 70L44.8426 69.9994ZM8.38629 4.41328C6.17949 4.41328 4.41422 6.17857 4.41422 8.38537V61.6134C4.41422 63.8202 6.17949 65.5854 8.38629 65.5854H44.7544C46.9612 65.5854 48.7264 63.8202 48.7264 61.6134V8.38537C48.7264 6.17857 46.9612 4.41328 44.7544 4.41328H8.38629Z" fill="white"/>
<path d="M40.6056 22.4207H11.7406C10.5048 22.4207 9.53382 21.4497 9.53382 20.2139C9.53382 18.9782 10.5048 18.0071 11.7406 18.0071H40.6056C41.8413 18.0071 42.8124 18.9782 42.8124 20.2139C42.8124 21.4497 41.8413 22.4207 40.6056 22.4207Z" fill="white"/>
<path d="M40.6056 33.8961H11.7406C10.5048 33.8961 9.53382 32.9251 9.53382 31.6893C9.53382 30.4536 10.5048 29.4825 11.7406 29.4825H40.6056C41.8413 29.4825 42.8124 30.4536 42.8124 31.6893C42.8124 32.9251 41.8413 33.8961 40.6056 33.8961Z" fill="white"/>
<path d="M40.6056 45.3715H11.7406C10.5048 45.3715 9.53382 44.4004 9.53382 43.1647C9.53382 41.9289 10.5048 40.9579 11.7406 40.9579H40.6056C41.8413 40.9579 42.8124 41.9289 42.8124 43.1647C42.8124 44.4004 41.8413 45.3715 40.6056 45.3715Z" fill="white"/>
<path d="M52.6106 41.6641L57.4657 46.5192L45.1959 58.7002L40.3408 53.8451L52.6106 41.6641ZM61.0844 40.4283L58.9657 38.3096C58.1714 37.5153 56.7589 37.5153 55.9646 38.3096L53.8464 40.3403L58.7015 45.1954L61.085 42.8119C61.7026 42.1057 61.7026 41.1346 61.0844 40.4284L61.0844 40.4283ZM37.8688 60.6426C37.7808 60.9954 38.1336 61.3488 38.5751 61.2608L43.9597 59.9369L39.1046 55.0818L37.8688 60.6426Z" fill="white"/>
</svg>
