<svg width="53" height="39" viewBox="0 0 53 39" fill="none" xmlns="http://www.w3.org/2000/svg">
<path d="M52.9371 13.2127C52.9146 13.117 52.8855 13.023 52.85 12.9311V12.8452C52.8014 12.7345 52.7428 12.6277 52.6761 12.5268L52.6075 12.4533C52.5525 12.376 52.4922 12.3021 52.4272 12.2328L52.3526 12.1593V12.1589C52.2663 12.076 52.1726 12.0004 52.0729 11.9324C51.9879 11.8752 51.8985 11.8239 51.8058 11.7794L27.4429 0.206398C26.8527 -0.0687994 26.1685 -0.0687994 25.5778 0.206398L1.22721 11.7729C0.734157 12.0083 0.34952 12.4181 0.149609 12.9207C-0.0498696 13.4236 -0.0498696 13.9822 0.149609 14.4847C0.34952 14.9873 0.734157 15.397 1.22721 15.6325L8.17115 18.9345V32.3454C8.16855 33.3257 8.48554 34.2812 9.0753 35.0709C9.66505 35.8607 10.4968 36.4426 11.4477 36.7316C21.2468 39.7561 31.7497 39.7561 41.5488 36.7316C42.4998 36.4427 43.3316 35.8607 43.9212 35.0709C44.5109 34.2812 44.828 33.3257 44.8254 32.3454V18.9345L48.6488 17.0965V31.1868H48.6483C48.6483 31.953 49.0633 32.6607 49.7364 33.0436C50.4094 33.4269 51.2389 33.4269 51.9124 33.0436C52.5854 32.6607 53 31.953 53 31.1868V13.7031C52.9991 13.5757 52.987 13.4484 52.9627 13.3232L52.9371 13.2127ZM40.4726 32.345C40.4735 32.4792 40.3855 32.5984 40.2554 32.639C31.298 35.4051 21.6974 35.4051 12.7398 32.639C12.6097 32.5984 12.5217 32.4792 12.5225 32.345V21.005L25.5776 27.1987L25.5772 27.1983C26.1674 27.4743 26.8521 27.4743 27.4423 27.1983L40.4974 21.0046L40.4726 32.345ZM26.4973 22.8921L7.18218 13.7028L26.4973 4.51952L45.8123 13.7088L26.4973 22.8921Z" fill="#243755"/>
</svg>
