<svg width="33" height="41" viewBox="0 0 33 41" fill="none" xmlns="http://www.w3.org/2000/svg">
<path fill-rule="evenodd" clip-rule="evenodd" d="M0 6.15009C0 2.75348 2.77018 0 6.18739 0H26.8126C30.2298 0 33 2.75348 33 6.15009V28.6998C33 29.8321 32.0764 30.7501 30.9373 30.7501V36.9002C32.0764 36.9002 33 37.8179 33 38.9501C33 40.0823 32.0764 41 30.9373 41H7.21927C3.58276 41 0.574013 38.3272 0.0737183 34.8499H0.000519266L0 6.15009ZM26.8126 36.9005V30.7504H7.21892C5.51049 30.7504 4.12522 32.127 4.12522 33.8255C4.12522 35.5236 5.51049 36.9005 7.21892 36.9005H26.8126ZM28.875 26.6501V6.15009C28.875 5.01786 27.9517 4.09982 26.8126 4.09982H6.18739C5.04829 4.09982 4.12504 5.01786 4.12504 6.15009V27.3407C5.06279 26.8979 6.11182 26.6501 7.21874 26.6501L28.875 26.6501ZM10.3128 10.2496C10.3128 9.11733 11.236 8.19965 12.3751 8.19965H16.5002C17.6393 8.19965 18.5625 9.11733 18.5625 10.2496C18.5625 11.3818 17.6393 12.2998 16.5002 12.2998H12.3751C11.236 12.2998 10.3128 11.3818 10.3128 10.2496ZM12.3751 14.3497C11.236 14.3497 10.3128 15.2674 10.3128 16.3996C10.3128 17.5319 11.236 18.4499 12.3751 18.4499H24.7499C25.889 18.4499 26.8126 17.5319 26.8126 16.3996C26.8126 15.2674 25.889 14.3497 24.7499 14.3497H12.3751Z" fill="#243755"/>
</svg>
