<svg width="11" height="19" viewBox="0 0 11 19" fill="none" xmlns="http://www.w3.org/2000/svg">
<path d="M11 9.20264C11.0014 9.44277 10.9551 9.68082 10.864 9.90313C10.7728 10.1254 10.6385 10.3276 10.4687 10.4981L3.14035 17.7967C2.96953 17.9668 2.76674 18.1018 2.54355 18.1939C2.32036 18.2859 2.08115 18.3333 1.83957 18.3333C1.598 18.3333 1.35879 18.2859 1.1356 18.1939C0.912411 18.1018 0.709619 17.9668 0.538798 17.7967C0.367978 17.6266 0.232475 17.4246 0.140028 17.2023C0.0475808 16.98 -7.3167e-08 16.7418 -8.0084e-08 16.5012C-8.7001e-08 16.2606 0.0475807 16.0224 0.140028 15.8001C0.232475 15.5778 0.367978 15.3758 0.538798 15.2057L6.60298 9.20264L0.776968 3.18132C0.589565 3.01347 0.438952 2.80891 0.334549 2.58045C0.230146 2.35198 0.174199 2.10451 0.170207 1.85353C0.166214 1.60254 0.214261 1.35343 0.311344 1.12178C0.408428 0.890137 0.55246 0.680933 0.734431 0.507254C0.916401 0.333572 1.1324 0.199152 1.36891 0.112404C1.60542 0.0256538 1.85736 -0.0115586 2.10897 0.00308981C2.36058 0.0177382 2.60645 0.0839347 2.8312 0.197536C3.05595 0.31114 3.25475 0.469704 3.41516 0.663317L10.487 7.96188C10.81 8.29556 10.9934 8.73917 11 9.20264Z" fill="#FF9560"/>
</svg>
