<svg width="22" height="22" viewBox="0 0 22 22" fill="none" xmlns="http://www.w3.org/2000/svg">
<path d="M21.5537 19.8255L17.4158 15.6997C18.7508 13.9989 19.4752 11.8985 19.4725 9.73627C19.4725 7.81062 18.9015 5.92821 17.8317 4.32709C16.7619 2.72597 15.2413 1.47805 13.4622 0.741134C11.6831 0.00421854 9.72547 -0.188592 7.83682 0.187084C5.94817 0.56276 4.21333 1.49005 2.85169 2.85169C1.49005 4.21333 0.56276 5.94817 0.187084 7.83682C-0.188592 9.72547 0.00421854 11.6831 0.741134 13.4622C1.47805 15.2413 2.72597 16.7619 4.32709 17.8317C5.92821 18.9015 7.81062 19.4725 9.73627 19.4725C11.8985 19.4752 13.9989 18.7508 15.6997 17.4158L19.8255 21.5537C19.9386 21.6677 20.0732 21.7583 20.2215 21.8201C20.3698 21.8819 20.5289 21.9137 20.6896 21.9137C20.8502 21.9137 21.0093 21.8819 21.1576 21.8201C21.3059 21.7583 21.4405 21.6677 21.5537 21.5537C21.6677 21.4405 21.7583 21.3059 21.8201 21.1576C21.8819 21.0093 21.9137 20.8502 21.9137 20.6896C21.9137 20.5289 21.8819 20.3698 21.8201 20.2215C21.7583 20.0732 21.6677 19.9386 21.5537 19.8255ZM2.43407 9.73627C2.43407 8.29204 2.86234 6.88023 3.66471 5.67939C4.46709 4.47855 5.60754 3.54261 6.94184 2.98992C8.27615 2.43723 9.74438 2.29262 11.1609 2.57438C12.5774 2.85614 13.8785 3.55161 14.8997 4.57284C15.9209 5.59407 16.6164 6.8952 16.8982 8.31169C17.1799 9.72817 17.0353 11.1964 16.4826 12.5307C15.9299 13.865 14.994 15.0055 13.7932 15.8078C12.5923 16.6102 11.1805 17.0385 9.73627 17.0385C7.79961 17.0385 5.94227 16.2691 4.57284 14.8997C3.20341 13.5303 2.43407 11.6729 2.43407 9.73627Z" fill="white"/>
</svg>
