<svg width="33" height="26" viewBox="0 0 33 26" fill="none" xmlns="http://www.w3.org/2000/svg">
<path d="M11.2484 16.4371L6.88787 12.0766C6.19169 11.3804 5.48823 10.4185 4.54962 10.0497C3.17728 9.51047 2.12633 10.3289 1.20023 11.2551C0.570059 11.8852 0.0189582 12.5307 0.000475832 13.4669C-0.0227444 14.6432 0.808044 15.413 1.5794 16.1843L5.62395 20.2289L9.28932 23.8943C9.84841 24.4534 10.4436 25.1426 11.3116 25.089C12.1283 25.0386 12.6712 24.3674 13.2075 23.8311L16.4305 20.6081L28.1849 8.85361L30.9024 6.13618C31.5654 5.47312 32.2398 4.84603 32.3449 3.86112C32.5703 1.74933 29.7054 -0.703106 27.6794 0.187951C26.5796 0.671629 25.6724 1.94987 24.8355 2.78679L19.0215 8.60082L13.8394 13.7829C12.9919 14.6304 11.9385 15.4575 11.2484 16.4371Z" fill="#FF9560"/>
</svg>
