<svg width="45" height="34" viewBox="0 0 45 34" fill="none" xmlns="http://www.w3.org/2000/svg">
<path d="M9.32921 0C4.18937 0 0 4.18637 0 9.32254V24.6775C0 29.8136 4.18937 34 9.32921 34H35.6708C40.8106 34 45 29.8136 45 24.6775V9.32254C45 4.18637 40.8106 0 35.6708 0H9.32921ZM9.32921 3.29054H35.6708C39.0436 3.29054 41.7076 5.95258 41.7076 9.32303V24.678C41.7076 28.0484 39.0436 30.7104 35.6708 30.7104H9.32921C5.95635 30.7104 3.2924 28.0484 3.2924 24.678V9.32303C3.2924 5.95258 5.95635 3.29054 9.32921 3.29054ZM17.561 10.4197V23.5811L29.6342 17.0005L17.561 10.4197Z" fill="#FF9560"/>
</svg>
