<svg width="15" height="10" viewBox="0 0 15 10" fill="none" xmlns="http://www.w3.org/2000/svg">
<path d="M9.81445 9.14062C9.67773 9.02343 9.60938 8.86718 9.60938 8.67187C9.60938 8.47655 9.67773 8.31054 9.81445 8.17382L12.5977 5.39062H0.703125C0.273438 5.35155 0.0390625 5.10741 0 4.6582C0.0390625 4.24804 0.273438 4.02343 0.703125 3.98437H12.5977L9.81445 1.20116C9.54102 0.869133 9.54102 0.537102 9.81445 0.20507C10.1465 -0.068367 10.4785 -0.068367 10.8105 0.20507L14.7949 4.18945C15.0684 4.52148 15.0684 4.85351 14.7949 5.18554L10.8105 9.16991C10.4785 9.44335 10.1465 9.43359 9.81445 9.14062Z" fill="white"/>
</svg>
