<svg width="14" height="14" viewBox="0 0 14 14" fill="none" xmlns="http://www.w3.org/2000/svg">
<path d="M13.0729 0.110678C12.8472 -0.0282116 12.6215 -0.0368919 12.3958 0.0846357L0.3125 6.95964C0.104167 7.09852 0 7.2895 0 7.53255C0.0173611 7.79297 0.147569 7.97526 0.390625 8.07943L4.375 9.74609V12.7148C4.375 12.9579 4.48785 13.1402 4.71354 13.2617C4.80035 13.3138 4.88715 13.3398 4.97396 13.3398C5.09549 13.3398 5.20833 13.3051 5.3125 13.2357L8.20312 11.3867L10.7813 12.4544C10.8507 12.4891 10.9288 12.5065 11.0156 12.5065C11.1198 12.5065 11.224 12.4805 11.3281 12.4284C11.5017 12.3242 11.6059 12.1766 11.6406 11.9857L13.3073 0.735678C13.3594 0.475261 13.2813 0.266928 13.0729 0.110678ZM9.60938 3.10547L4.73958 8.54818L2.03125 7.42839L9.60938 3.10547ZM5.59896 11.569V10.293L6.82292 10.7878L5.59896 11.569ZM10.5469 10.9961L5.9375 9.06901L11.7969 2.55859L10.5469 10.9961Z" fill="white"/>
</svg>
