<svg width="14" height="14" viewBox="0 0 14 14" fill="none" xmlns="http://www.w3.org/2000/svg">
<path d="M6.75129 0C10.4808 0 13.5026 3.02175 13.5026 6.75129C13.5026 10.4808 10.4808 13.5026 6.75129 13.5026C3.02175 13.5026 0 10.4808 0 6.75129C0 3.02175 3.02175 0 6.75129 0ZM9.85198 6.2885L6.16327 2.59979C5.90738 2.34389 5.49359 2.34389 5.24042 2.59979L4.77763 3.06258C4.52173 3.31848 4.52173 3.73226 4.77763 3.98544L7.54348 6.75129L4.77763 9.51714C4.52173 9.77304 4.52173 10.1868 4.77763 10.44L5.24042 10.9028C5.49631 11.1587 5.9101 11.1587 6.16327 10.9028L9.85198 7.21408C10.1079 6.95818 10.1079 6.54439 9.85198 6.2885Z" fill="#227BD7"/>
</svg>
