<svg width="22" height="22" viewBox="0 0 22 22" fill="none" xmlns="http://www.w3.org/2000/svg">
<path d="M15.8125 6.20898L8.29297 14.5449L5.9082 11.9238C5.79362 11.7806 5.63965 11.7054 5.44629 11.6982C5.25293 11.6911 5.08464 11.752 4.94141 11.8809C4.8125 12.0098 4.74089 12.1709 4.72656 12.3643C4.71224 12.5576 4.77669 12.7188 4.91992 12.8477L7.66992 15.9199C7.74154 16.0059 7.82389 16.0703 7.91699 16.1133C8.01009 16.1562 8.10677 16.1777 8.20703 16.1777C8.23568 16.1777 8.25 16.1777 8.25 16.1777C8.25 16.1777 8.26432 16.1777 8.29297 16.1777C8.30729 16.1777 8.31445 16.1777 8.31445 16.1777C8.41471 16.1777 8.51497 16.1562 8.61523 16.1133C8.7155 16.0703 8.80143 16.013 8.87305 15.9414L16.8438 7.1543C16.9583 7.01107 17.0156 6.84277 17.0156 6.64941C17.0156 6.45605 16.944 6.30208 16.8008 6.1875C16.6576 6.04427 16.4928 5.97982 16.3066 5.99414C16.1204 6.00846 15.9557 6.08008 15.8125 6.20898ZM11 0C9.48177 0 8.05664 0.286459 6.72461 0.859375C5.39258 1.44662 4.22884 2.23796 3.2334 3.2334C2.23796 4.22884 1.44661 5.39258 0.859375 6.72461C0.286458 8.05664 0 9.48177 0 11C0 12.5039 0.286458 13.929 0.859375 15.2754C1.44661 16.6074 2.23796 17.7712 3.2334 18.7666C4.22884 19.762 5.39258 20.5462 6.72461 21.1191C8.05664 21.7064 9.48177 22 11 22C12.5182 22 13.9434 21.7064 15.2754 21.1191C16.6074 20.5462 17.7712 19.762 18.7666 18.7666C19.762 17.7712 20.5534 16.6074 21.1406 15.2754C21.7135 13.929 22 12.5039 22 11C22 9.48177 21.7135 8.05664 21.1406 6.72461C20.5534 5.39258 19.762 4.22884 18.7666 3.2334C17.7712 2.23796 16.6074 1.44662 15.2754 0.859375C13.9434 0.286459 12.5182 0 11 0ZM11 20.625C9.68229 20.625 8.4362 20.3672 7.26172 19.8516C6.10156 19.3503 5.08464 18.6628 4.21094 17.7891C3.33724 16.9154 2.64258 15.8984 2.12695 14.7383C1.62565 13.5638 1.375 12.3177 1.375 11C1.375 9.66797 1.62565 8.42188 2.12695 7.26172C2.64258 6.08724 3.33366 5.06673 4.2002 4.2002C5.06673 3.33366 6.08724 2.64258 7.26172 2.12695C8.4362 1.62565 9.68229 1.375 11 1.375C12.3177 1.375 13.5638 1.62565 14.7383 2.12695C15.8984 2.62826 16.9154 3.31576 17.7891 4.18945C18.6628 5.06315 19.3574 6.08724 19.873 7.26172C20.3743 8.42188 20.625 9.66797 20.625 11C20.625 12.3177 20.3743 13.5638 19.873 14.7383C19.3574 15.8984 18.6663 16.9154 17.7998 17.7891C16.9333 18.6628 15.9128 19.3503 14.7383 19.8516C13.5638 20.3672 12.3177 20.625 11 20.625Z" fill="url(#paint0_linear_305_108325)"/>
<defs>
<linearGradient id="paint0_linear_305_108325" x1="11" y1="22" x2="11" y2="0" gradientUnits="userSpaceOnUse">
<stop stop-color="#0080FF"/>
<stop offset="1" stop-color="#1761AB"/>
</linearGradient>
</defs>
</svg>
