<svg width="26" height="26" viewBox="0 0 26 26" fill="none" xmlns="http://www.w3.org/2000/svg">
<path d="M10.2546 14.4855H6.28713C6.05292 14.4853 5.82836 14.3922 5.66271 14.2266C5.49706 14.0611 5.40385 13.8365 5.40353 13.6023V10.9873L5.09234 11.2989C4.81081 11.5808 4.31884 11.5808 4.03731 11.2989L3.17484 10.4364C3.035 10.2965 2.95645 10.1067 2.95645 9.90891C2.95645 9.71107 3.035 9.52133 3.17484 9.38139L4.80513 7.75111C5.31141 7.24507 5.94143 6.88048 6.63244 6.69364C6.91275 6.61727 7.20525 6.75539 7.32794 7.01946C7.47419 7.33308 7.75653 7.70683 8.27044 7.70683C8.78516 7.70683 9.06709 7.33308 9.21294 7.01986C9.27236 6.89259 9.37457 6.79022 9.50175 6.7306C9.62893 6.67098 9.77301 6.6579 9.90884 6.69364C10.6 6.88047 11.2301 7.24506 11.7366 7.75111L13.3668 9.38139C13.5078 9.52236 13.5854 9.70964 13.5854 9.90911C13.5854 10.1086 13.5078 10.2955 13.3668 10.4364L12.504 11.2989C12.364 11.4387 12.1743 11.5173 11.9765 11.5173C11.7786 11.5173 11.5889 11.4387 11.4489 11.2989L11.1378 10.9873V13.6023C11.1375 13.8365 11.0444 14.061 10.8788 14.2266C10.7133 14.3922 10.4887 14.4853 10.2546 14.4855ZM5.76469 9.75474C5.81213 9.75468 5.85912 9.76399 5.90296 9.78212C5.9468 9.80025 5.98664 9.82685 6.02018 9.8604C6.05373 9.89395 6.08033 9.93378 6.09846 9.97762C6.11659 10.0215 6.1259 10.0685 6.12584 10.1159V13.6023C6.12584 13.6913 6.19816 13.7632 6.28713 13.7632H10.2546C10.2757 13.7632 10.2966 13.759 10.3161 13.751C10.3356 13.7429 10.3534 13.731 10.3683 13.7161C10.3833 13.7011 10.3951 13.6834 10.4032 13.6639C10.4113 13.6444 10.4154 13.6235 10.4154 13.6023V10.1159C10.4153 10.0444 10.4363 9.9745 10.476 9.91501C10.5156 9.85552 10.572 9.80914 10.638 9.78177C10.704 9.75439 10.7767 9.74724 10.8468 9.76124C10.9169 9.77523 10.9813 9.80973 11.0317 9.86036L11.9596 10.7882L12.8562 9.89205L11.2259 8.26177C10.8339 7.86995 10.3514 7.58071 9.82109 7.41961C9.48716 8.06271 8.92734 8.42914 8.27044 8.42914C7.61475 8.42914 7.05453 8.06271 6.72059 7.41961C6.19033 7.58085 5.70788 7.87007 5.31578 8.26177L3.6855 9.89205L4.54797 10.7882L5.50956 9.86036C5.57863 9.7913 5.67084 9.75474 5.76469 9.75474ZM21.1404 12.8447H18.1029C17.8894 12.8445 17.6847 12.7596 17.5336 12.6086C17.3826 12.4577 17.2976 12.253 17.2973 12.0395V9.84208C17.2973 9.39805 17.6585 9.03649 18.1029 9.03649H20.4502C20.9296 9.03649 21.3509 9.37652 21.4516 9.84493L21.9241 11.8546C21.981 12.0947 21.9261 12.3446 21.7726 12.5388C21.6194 12.7338 21.3887 12.8447 21.1404 12.8447ZM18.1029 9.7588C18.0808 9.7588 18.0596 9.76757 18.044 9.78319C18.0284 9.79881 18.0196 9.81999 18.0196 9.84208V12.0395C18.0196 12.0854 18.057 12.1228 18.1029 12.1228H21.1404C21.1531 12.1231 21.1657 12.1203 21.1771 12.1148C21.1886 12.1093 21.1986 12.1012 21.2063 12.0911L21.2217 12.0204L20.7468 10.0038C20.7336 9.93482 20.6967 9.87264 20.6426 9.82793C20.5884 9.78322 20.5204 9.75877 20.4502 9.7588H18.1029ZM20.3592 20.678C19.4838 20.678 18.772 19.9654 18.772 19.0904C18.772 18.2153 19.4838 17.5035 20.3592 17.5035C21.2347 17.5035 21.9468 18.2149 21.9468 19.0904C21.9468 19.9658 21.2343 20.678 20.3592 20.678ZM20.3592 18.2255C20.1299 18.2256 19.9099 18.3167 19.7478 18.4789C19.5856 18.6411 19.4944 18.861 19.4943 19.0904C19.4943 19.5677 19.8823 19.9557 20.3592 19.9557C20.8366 19.9557 21.2245 19.5677 21.2245 19.0904C21.2243 18.861 21.1331 18.641 20.9708 18.4789C20.8086 18.3167 20.5886 18.2256 20.3592 18.2255ZM5.64078 20.678C4.76572 20.678 4.05356 19.9654 4.05356 19.0904C4.05356 18.2153 4.76572 17.5035 5.64078 17.5035C6.51584 17.5035 7.22759 18.2149 7.22759 19.0904C7.22759 19.9658 6.51544 20.678 5.64078 20.678ZM5.64078 18.2255C5.41143 18.2256 5.1915 18.3167 5.02932 18.4789C4.86714 18.6411 4.77598 18.861 4.77587 19.0904C4.77587 19.5677 5.16384 19.9557 5.64078 19.9557C6.11772 19.9557 6.50528 19.5677 6.50528 19.0904C6.50517 18.8611 6.41407 18.6412 6.25198 18.479C6.08989 18.3169 5.87007 18.2257 5.64078 18.2255ZM24.7772 12.5042L23.5178 12.1914L22.8881 9.49799C22.7602 8.94794 22.4495 8.45757 22.0067 8.10705C21.5639 7.75652 21.0153 7.56659 20.4506 7.5683H16.5425V5.66705C16.5425 4.67986 15.7381 3.87549 14.7509 3.87549H1.79156C0.804375 3.87549 0 4.67986 0 5.66705V17.8424C0 18.732 0.723125 19.4552 1.61281 19.4552H2.63087C2.81206 20.9563 4.09134 22.1242 5.64078 22.1242C7.18981 22.1242 8.46909 20.9563 8.65028 19.4552H17.3497C17.5309 20.9563 18.8098 22.1242 20.3592 22.1242C21.9083 22.1242 23.1879 20.9563 23.3691 19.4552H24.3872C25.2769 19.4552 26 18.732 26 17.8424V14.0683C26 13.3289 25.4963 12.683 24.7772 12.5042ZM1.79156 4.59861H14.7509C15.34 4.59861 15.8194 5.07799 15.8194 5.66705V16.5586H7.30803C6.82906 16.2421 6.25625 16.0569 5.64078 16.0569C5.02531 16.0569 4.45209 16.2421 3.97312 16.5586H0.723125V5.66705C0.723125 5.07799 1.2025 4.59861 1.79156 4.59861ZM2.63006 18.7321H1.61281C1.37685 18.7321 1.15056 18.6383 0.983708 18.4715C0.81686 18.3046 0.723125 18.0783 0.723125 17.8424V17.2817H3.21059C2.89279 17.7057 2.69281 18.2059 2.63006 18.7321ZM5.64038 21.4023C4.36597 21.4023 3.32881 20.3648 3.32881 19.0904C3.32881 17.816 4.36597 16.7788 5.64038 16.7788C6.91519 16.7788 7.95194 17.816 7.95194 19.0904C7.95194 20.3648 6.91519 21.4023 5.64038 21.4023ZM20.3588 21.4023C19.0844 21.4023 18.0477 20.3648 18.0477 19.0904C18.0477 17.816 19.0844 16.7788 20.3592 16.7788C21.634 16.7788 22.6708 17.816 22.6708 19.0904C22.6708 20.3648 21.6336 21.4019 20.3592 21.4019L20.3588 21.4023ZM25.2769 17.8424C25.2769 18.3339 24.8787 18.7321 24.3872 18.7321H23.3699C23.192 17.2277 21.9107 16.0569 20.3592 16.0569C18.8073 16.0569 17.5268 17.2277 17.3489 18.7321H8.65109C8.58847 18.206 8.38822 17.7057 8.07056 17.2817H16.1809C16.38 17.2817 16.5425 17.1192 16.5425 16.9202V8.28736H20.4506C21.2794 8.28736 21.9944 8.85611 22.1812 9.66455L22.8638 12.5692C22.8962 12.6992 22.9978 12.8049 23.1278 12.8374L24.6025 13.203C24.897 13.2781 25.1237 13.4914 25.2224 13.7632H24.8487C24.2109 13.7632 23.6917 14.2824 23.6917 14.9206C23.6917 15.5588 24.2105 16.078 24.8491 16.078H25.2769V17.8424ZM25.2769 15.3557H24.8491C24.6094 15.3557 24.4136 15.1607 24.4136 14.9206C24.4136 14.6805 24.609 14.4855 24.8491 14.4855H25.2769V15.3557Z" fill="black"/>
</svg>
