<svg width="30" height="22" viewBox="0 0 30 22" fill="none" xmlns="http://www.w3.org/2000/svg">
<mask id="path-1-inside-1_305_108399" fill="white">
<path d="M29.4867 10.5228H26.9487C28.0038 8.12738 27.8897 6.18821 27.4905 4.87643C26.8061 2.53802 24.4962 0 21.0741 0C20.1616 0 19.249 0.171102 18.308 0.513308C16.6825 1.11217 15.5989 1.76806 15.1141 2.11027C14.6293 1.76806 13.5741 1.11217 11.9202 0.513308C10.9791 0.171102 10.038 0 9.15399 0C5.73194 0 3.42205 2.53802 2.73764 4.87643C2.3384 6.27376 2.19582 8.38403 3.53612 11.0361H0.456274C0.19962 11.0361 0 11.2357 0 11.4924C0 11.7491 0.19962 11.9487 0.456274 11.9487H4.07795C4.22053 12.2053 4.39163 12.462 4.59125 12.7186C7.55703 16.9962 14.0019 21.6445 15.1711 21.9297V21.9582C15.1711 21.9582 15.1996 21.9582 15.2281 21.9297H15.3137V21.9011C16.3118 21.4163 22.5 17.424 25.7509 12.6901C26.0646 12.2624 26.3213 11.8346 26.5494 11.4068H29.5437C29.8004 11.4068 30 11.2072 30 10.9506C30 10.6939 29.7433 10.5228 29.4867 10.5228ZM24.924 12.2053C21.9011 16.6255 16.3403 20.1901 15.1426 20.9601C13.9163 20.1901 8.38403 16.597 5.3327 12.2053L5.1616 11.9487H9.35361C9.52471 11.9487 9.69582 11.8631 9.78137 11.692L11.692 7.92776L14.6863 15.5989C14.7433 15.77 14.943 15.884 15.1141 15.884H15.1426C15.3422 15.884 15.5133 15.7414 15.5703 15.5418L18.1939 6.55893L19.5913 11.0932C19.6483 11.2643 19.7909 11.3783 19.962 11.4068C20.1331 11.4354 20.3042 11.3498 20.4182 11.2072L21.5304 9.58175L22.4715 11.1787C22.557 11.3213 22.6996 11.4068 22.8707 11.4068H25.4373C25.2662 11.692 25.0951 11.9487 24.924 12.2053ZM25.9506 10.5228H23.1559L21.9867 8.52662C21.9011 8.38403 21.7586 8.29848 21.5875 8.29848C21.4163 8.29848 21.2738 8.35551 21.1882 8.4981L20.2186 9.92395L18.6502 4.81939C18.5932 4.61977 18.3935 4.5057 18.1939 4.47719C17.9943 4.47719 17.7947 4.61977 17.7376 4.81939L15.0856 13.9734L12.2053 6.61597C12.1483 6.44487 11.9772 6.3308 11.8061 6.3308C11.6065 6.3308 11.4639 6.41635 11.3783 6.58745L9.12547 11.0076H4.59125C3.45057 8.92585 3.13688 6.92966 3.65019 5.13308C4.24905 3.10836 6.21673 0.941064 9.18251 0.941064C9.98099 0.941064 10.808 1.11217 11.635 1.39734C13.7167 2.1673 14.8289 3.05133 14.8574 3.05133C15.0285 3.19392 15.2567 3.19392 15.4278 3.05133C15.4278 3.05133 16.5399 2.1673 18.6502 1.39734C19.4772 1.08365 20.3042 0.941064 21.1027 0.941064C24.0399 0.941064 26.0361 3.10836 26.635 5.13308C27.1198 6.78707 26.8631 8.61217 25.9506 10.5228Z"/>
</mask>
<path d="M29.4867 10.5228H26.9487C28.0038 8.12738 27.8897 6.18821 27.4905 4.87643C26.8061 2.53802 24.4962 0 21.0741 0C20.1616 0 19.249 0.171102 18.308 0.513308C16.6825 1.11217 15.5989 1.76806 15.1141 2.11027C14.6293 1.76806 13.5741 1.11217 11.9202 0.513308C10.9791 0.171102 10.038 0 9.15399 0C5.73194 0 3.42205 2.53802 2.73764 4.87643C2.3384 6.27376 2.19582 8.38403 3.53612 11.0361H0.456274C0.19962 11.0361 0 11.2357 0 11.4924C0 11.7491 0.19962 11.9487 0.456274 11.9487H4.07795C4.22053 12.2053 4.39163 12.462 4.59125 12.7186C7.55703 16.9962 14.0019 21.6445 15.1711 21.9297V21.9582C15.1711 21.9582 15.1996 21.9582 15.2281 21.9297H15.3137V21.9011C16.3118 21.4163 22.5 17.424 25.7509 12.6901C26.0646 12.2624 26.3213 11.8346 26.5494 11.4068H29.5437C29.8004 11.4068 30 11.2072 30 10.9506C30 10.6939 29.7433 10.5228 29.4867 10.5228ZM24.924 12.2053C21.9011 16.6255 16.3403 20.1901 15.1426 20.9601C13.9163 20.1901 8.38403 16.597 5.3327 12.2053L5.1616 11.9487H9.35361C9.52471 11.9487 9.69582 11.8631 9.78137 11.692L11.692 7.92776L14.6863 15.5989C14.7433 15.77 14.943 15.884 15.1141 15.884H15.1426C15.3422 15.884 15.5133 15.7414 15.5703 15.5418L18.1939 6.55893L19.5913 11.0932C19.6483 11.2643 19.7909 11.3783 19.962 11.4068C20.1331 11.4354 20.3042 11.3498 20.4182 11.2072L21.5304 9.58175L22.4715 11.1787C22.557 11.3213 22.6996 11.4068 22.8707 11.4068H25.4373C25.2662 11.692 25.0951 11.9487 24.924 12.2053ZM25.9506 10.5228H23.1559L21.9867 8.52662C21.9011 8.38403 21.7586 8.29848 21.5875 8.29848C21.4163 8.29848 21.2738 8.35551 21.1882 8.4981L20.2186 9.92395L18.6502 4.81939C18.5932 4.61977 18.3935 4.5057 18.1939 4.47719C17.9943 4.47719 17.7947 4.61977 17.7376 4.81939L15.0856 13.9734L12.2053 6.61597C12.1483 6.44487 11.9772 6.3308 11.8061 6.3308C11.6065 6.3308 11.4639 6.41635 11.3783 6.58745L9.12547 11.0076H4.59125C3.45057 8.92585 3.13688 6.92966 3.65019 5.13308C4.24905 3.10836 6.21673 0.941064 9.18251 0.941064C9.98099 0.941064 10.808 1.11217 11.635 1.39734C13.7167 2.1673 14.8289 3.05133 14.8574 3.05133C15.0285 3.19392 15.2567 3.19392 15.4278 3.05133C15.4278 3.05133 16.5399 2.1673 18.6502 1.39734C19.4772 1.08365 20.3042 0.941064 21.1027 0.941064C24.0399 0.941064 26.0361 3.10836 26.635 5.13308C27.1198 6.78707 26.8631 8.61217 25.9506 10.5228Z" fill="black"/>
<path d="M26.9487 10.5228L25.1184 9.71661L23.8823 12.5228H26.9487V10.5228ZM27.4905 4.87643L25.571 5.43822L25.574 5.4485L25.5771 5.45875L27.4905 4.87643ZM18.308 0.513308L17.6245 -1.3663L17.6166 -1.36338L18.308 0.513308ZM15.1141 2.11027L13.9607 3.7442L15.1141 4.55834L16.2674 3.7442L15.1141 2.11027ZM11.9202 0.513308L11.2367 2.3929L11.2393 2.39384L11.9202 0.513308ZM2.73764 4.87643L0.818128 4.31462L0.814595 4.32698L2.73764 4.87643ZM3.53612 11.0361V13.0361H6.78777L5.32112 10.134L3.53612 11.0361ZM4.07795 11.9487L5.82626 10.9774L5.25475 9.94867H4.07795V11.9487ZM4.59125 12.7186L6.23485 11.5791L6.20361 11.534L6.16996 11.4907L4.59125 12.7186ZM15.1711 21.9297H17.1711V20.3588L15.645 19.9866L15.1711 21.9297ZM15.1711 21.9582H13.1711V23.9581L15.1711 23.9582L15.1711 21.9582ZM15.2281 21.9297V19.9297H14.3997L13.8139 20.5154L15.2281 21.9297ZM15.3137 21.9297V23.9297H17.3137V21.9297H15.3137ZM15.3137 21.9011L14.4399 20.1021L13.3137 20.6491V21.9011H15.3137ZM25.7509 12.6901L24.1381 11.5074L24.1198 11.5324L24.1023 11.5579L25.7509 12.6901ZM26.5494 11.4068V9.40684H25.3494L24.7847 10.4657L26.5494 11.4068ZM24.924 12.2053L26.5748 13.3343L26.5815 13.3246L26.5881 13.3147L24.924 12.2053ZM15.1426 20.9601L14.079 22.6539L15.1552 23.3296L16.2241 22.6424L15.1426 20.9601ZM5.3327 12.2053L3.6686 13.3147L3.67927 13.3307L3.69024 13.3465L5.3327 12.2053ZM5.1616 11.9487V9.94867H1.42456L3.4975 13.0581L5.1616 11.9487ZM9.78137 11.692L7.99792 10.7868L7.99251 10.7976L9.78137 11.692ZM11.692 7.92776L13.5551 7.20053L11.9306 3.0388L9.9086 7.02254L11.692 7.92776ZM14.6863 15.5989L16.5837 14.9664L16.5677 14.9186L16.5494 14.8716L14.6863 15.5989ZM15.5703 15.5418L13.6505 14.9811L13.6473 14.9924L15.5703 15.5418ZM18.1939 6.55893L20.1052 5.96992L18.1425 -0.398913L16.2741 5.99823L18.1939 6.55893ZM19.5913 11.0932L17.68 11.6822L17.6867 11.704L17.6939 11.7256L19.5913 11.0932ZM20.4182 11.2072L21.98 12.4566L22.0267 12.3983L22.0689 12.3366L20.4182 11.2072ZM21.5304 9.58175L23.2535 8.56636L21.6563 5.85597L19.8798 8.45238L21.5304 9.58175ZM22.4715 11.1787L20.7484 12.1941L20.7524 12.2009L20.7565 12.2077L22.4715 11.1787ZM25.4373 11.4068L27.1522 12.4358L28.9696 9.40684H25.4373V11.4068ZM25.9506 10.5228V12.5228H27.2118L27.7553 11.3848L25.9506 10.5228ZM23.1559 10.5228L21.4301 11.5336L22.0095 12.5228H23.1559V10.5228ZM21.9867 8.52662L23.7125 7.51581L23.7071 7.50669L23.7017 7.49762L21.9867 8.52662ZM21.1882 8.4981L22.8421 9.62272L22.874 9.57577L22.9032 9.52709L21.1882 8.4981ZM20.2186 9.92395L18.3068 10.5114L19.5303 14.493L21.8725 11.0486L20.2186 9.92395ZM18.6502 4.81939L16.7271 5.36883L16.7326 5.38788L16.7384 5.40681L18.6502 4.81939ZM18.1939 4.47719L18.4768 2.49729L18.3361 2.47719H18.1939V4.47719ZM17.7376 4.81939L19.6587 5.37595L19.6607 5.36883L17.7376 4.81939ZM15.0856 13.9734L13.2232 14.7025L15.3687 20.1831L17.0066 14.5299L15.0856 13.9734ZM12.2053 6.61597L10.308 7.24842L10.3242 7.29718L10.3429 7.34504L12.2053 6.61597ZM11.3783 6.58745L13.1602 7.49565L13.1637 7.48878L13.1672 7.48188L11.3783 6.58745ZM9.12547 11.0076V13.0076H10.3509L10.9074 11.9158L9.12547 11.0076ZM4.59125 11.0076L2.8373 11.9687L3.40658 13.0076H4.59125V11.0076ZM3.65019 5.13308L1.73232 4.56582L1.72969 4.57472L1.72714 4.58364L3.65019 5.13308ZM11.635 1.39734L12.3288 -0.478469L12.308 -0.48617L12.287 -0.493408L11.635 1.39734ZM14.8574 3.05133L16.1378 1.51489L15.5815 1.05133H14.8574V3.05133ZM15.4278 3.05133L14.1833 1.48568L14.1652 1.50008L14.1474 1.51489L15.4278 3.05133ZM18.6502 1.39734L19.3357 3.27618L19.3476 3.27183L19.3595 3.26733L18.6502 1.39734ZM26.635 5.13308L28.5542 4.57054L28.5528 4.56582L26.635 5.13308ZM29.4867 10.5228V8.52281H26.9487V10.5228V12.5228H29.4867V10.5228ZM26.9487 10.5228L28.779 11.329C30.0309 8.48677 29.9396 6.05446 29.4038 4.2941L27.4905 4.87643L25.5771 5.45875C25.8399 6.32196 25.9767 7.76798 25.1184 9.71661L26.9487 10.5228ZM27.4905 4.87643L29.41 4.31463C28.5357 1.32762 25.5801 -2 21.0741 -2V0V2C23.4123 2 25.0764 3.74842 25.571 5.43822L27.4905 4.87643ZM21.0741 0V-2C19.9033 -2 18.7597 -1.77906 17.6245 -1.36628L18.308 0.513308L18.9915 2.39289C19.7384 2.12127 20.4199 2 21.0741 2V0ZM18.308 0.513308L17.6166 -1.36338C15.8248 -0.703267 14.5862 0.0348214 13.9607 0.47633L15.1141 2.11027L16.2674 3.7442C16.6115 3.5013 17.5402 2.9276 18.9994 2.38999L18.308 0.513308ZM15.1141 2.11027L16.2674 0.47633C15.6515 0.041531 14.4388 -0.70181 12.601 -1.36722L11.9202 0.513308L11.2393 2.39384C12.7094 2.92614 13.6071 3.49459 13.9607 3.7442L15.1141 2.11027ZM11.9202 0.513308L12.6036 -1.36628C11.4648 -1.78041 10.2927 -2 9.15399 -2V0V2C9.7833 2 10.4934 2.12261 11.2367 2.39289L11.9202 0.513308ZM9.15399 0V-2C4.64805 -2 1.69241 1.32762 0.818168 4.31463L2.73764 4.87643L4.65712 5.43822C5.15169 3.74842 6.81583 2 9.15399 2V0ZM2.73764 4.87643L0.814595 4.32698C0.289654 6.16428 0.163944 8.79763 1.75112 11.9382L3.53612 11.0361L5.32112 10.134C4.22769 7.97043 4.38715 6.38325 4.66069 5.42587L2.73764 4.87643ZM3.53612 11.0361V9.03612H0.456274V11.0361V13.0361H3.53612V11.0361ZM0.456274 11.0361V9.03612C-0.90496 9.03612 -2 10.1312 -2 11.4924H0H2C2 12.3403 1.3042 13.0361 0.456274 13.0361V11.0361ZM0 11.4924H-2C-2 12.8536 -0.904947 13.9487 0.456274 13.9487V11.9487V9.94867C1.30419 9.94867 2 10.6445 2 11.4924H0ZM0.456274 11.9487V13.9487H4.07795V11.9487V9.94867H0.456274V11.9487ZM4.07795 11.9487L2.32963 12.92C2.52706 13.2753 2.75651 13.6173 3.01255 13.9465L4.59125 12.7186L6.16996 11.4907C6.02676 11.3066 5.914 11.1353 5.82626 10.9774L4.07795 11.9487ZM4.59125 12.7186L2.94766 13.8582C4.58742 16.2232 7.107 18.5934 9.29224 20.3723C10.3988 21.2731 11.4581 22.0535 12.3332 22.6363C12.7694 22.9268 13.1772 23.1797 13.5336 23.3771C13.8355 23.5443 14.2679 23.768 14.6972 23.8727L15.1711 21.9297L15.645 19.9866C15.782 20.02 15.7573 20.0361 15.4713 19.8778C15.2399 19.7496 14.9292 19.5593 14.5504 19.307C13.7956 18.8044 12.8391 18.1019 11.8175 17.2703C9.74661 15.5844 7.56086 13.4916 6.23485 11.5791L4.59125 12.7186ZM15.1711 21.9297H13.1711V21.9582H15.1711H17.1711V21.9297H15.1711ZM15.1711 21.9582C15.1711 23.9582 15.172 23.9582 15.173 23.9582C15.1734 23.9582 15.1743 23.9582 15.175 23.9582C15.1763 23.9582 15.1776 23.9582 15.1789 23.9582C15.1815 23.9581 15.1842 23.9581 15.1868 23.9581C15.1921 23.9581 15.1975 23.958 15.2029 23.9579C15.2137 23.9578 15.2247 23.9575 15.2359 23.9571C15.2583 23.9564 15.2814 23.9553 15.3054 23.9537C15.3532 23.9505 15.4045 23.9454 15.4588 23.9376C15.567 23.9222 15.6898 23.8958 15.8214 23.852C16.0915 23.7619 16.3838 23.6025 16.6424 23.3439L15.2281 21.9297L13.8139 20.5154C14.044 20.2854 14.3078 20.1401 14.5565 20.0572C14.6774 20.0169 14.7912 19.9924 14.8932 19.9778C14.9443 19.9705 14.9932 19.9656 15.0394 19.9625C15.0625 19.961 15.085 19.9599 15.107 19.9592C15.1179 19.9589 15.1288 19.9586 15.1395 19.9584C15.1448 19.9583 15.1501 19.9583 15.1554 19.9582C15.158 19.9582 15.1607 19.9582 15.1633 19.9582C15.1646 19.9582 15.1659 19.9582 15.1672 19.9582C15.1679 19.9582 15.1689 19.9582 15.1692 19.9582C15.1702 19.9582 15.1711 19.9582 15.1711 21.9582ZM15.2281 21.9297V23.9297H15.3137V21.9297V19.9297H15.2281V21.9297ZM15.3137 21.9297H17.3137V21.9011H15.3137H13.3137V21.9297H15.3137ZM15.3137 21.9011L16.1875 23.7002C16.8776 23.365 18.8059 22.1432 20.9313 20.4552C23.0769 18.7513 25.6117 16.4257 27.3996 13.8223L25.7509 12.6901L24.1023 11.5579C22.6392 13.6883 20.4545 15.7259 18.4437 17.3228C16.4128 18.9357 14.7479 19.9525 14.4399 20.1021L15.3137 21.9011ZM25.7509 12.6901L27.3638 13.8728C27.7468 13.3505 28.0529 12.8379 28.3141 12.348L26.5494 11.4068L24.7847 10.4657C24.5897 10.8313 24.3825 11.1742 24.1381 11.5074L25.7509 12.6901ZM26.5494 11.4068V13.4068H29.5437V11.4068V9.40684H26.5494V11.4068ZM29.5437 11.4068V13.4068C30.9049 13.4068 32 12.3118 32 10.9506H30H28C28 10.1027 28.6958 9.40684 29.5437 9.40684V11.4068ZM30 10.9506H32C32 10.0938 31.5557 9.4415 31.0675 9.06174C30.6009 8.69885 30.0347 8.52281 29.4867 8.52281V10.5228V12.5228C29.1953 12.5228 28.8858 12.4323 28.6117 12.2191C28.3159 11.9891 28 11.5507 28 10.9506H30ZM24.924 12.2053L23.2731 11.0763C20.5123 15.1133 15.3007 18.4808 14.0611 19.2777L15.1426 20.9601L16.2241 22.6424C17.3799 21.8994 23.2899 18.1377 26.5748 13.3343L24.924 12.2053ZM15.1426 20.9601L16.2061 19.2663C14.9735 18.4923 9.76883 15.0849 6.97516 11.0641L5.3327 12.2053L3.69024 13.3465C6.99923 18.109 12.8592 21.8879 14.079 22.6539L15.1426 20.9601ZM5.3327 12.2053L6.9968 11.0959L6.8257 10.8393L5.1616 11.9487L3.4975 13.0581L3.6686 13.3147L5.3327 12.2053ZM5.1616 11.9487V13.9487H9.35361V11.9487V9.94867H5.1616V11.9487ZM9.35361 11.9487V13.9487C10.1713 13.9487 11.099 13.5289 11.5702 12.5864L9.78137 11.692L7.99251 10.7976C8.29266 10.1973 8.87808 9.94867 9.35361 9.94867V11.9487ZM9.78137 11.692L11.5648 12.5972L13.4754 8.83298L11.692 7.92776L9.9086 7.02254L7.99795 10.7868L9.78137 11.692ZM11.692 7.92776L9.82892 8.65499L12.8232 16.3261L14.6863 15.5989L16.5494 14.8716L13.5551 7.20053L11.692 7.92776ZM14.6863 15.5989L12.7889 16.2313C12.996 16.8524 13.4168 17.2595 13.7837 17.4929C14.1501 17.7261 14.611 17.884 15.1141 17.884V15.884V13.884C15.446 13.884 15.7215 13.9849 15.9312 14.1183C16.1412 14.2519 16.4337 14.5164 16.5837 14.9664L14.6863 15.5989ZM15.1141 15.884V17.884H15.1426V15.884V13.884H15.1141V15.884ZM15.1426 15.884V17.884C16.347 17.884 17.2232 17.0369 17.4934 16.0913L15.5703 15.5418L13.6473 14.9924C13.8034 14.446 14.3374 13.884 15.1426 13.884V15.884ZM15.5703 15.5418L17.4901 16.1025L20.1137 7.11964L18.1939 6.55893L16.2741 5.99823L13.6505 14.9811L15.5703 15.5418ZM18.1939 6.55893L16.2826 7.14795L17.68 11.6822L19.5913 11.0932L21.5026 10.5041L20.1052 5.96992L18.1939 6.55893ZM19.5913 11.0932L17.6939 11.7256C17.9972 12.6356 18.7697 13.2357 19.6332 13.3796L19.962 11.4068L20.2908 9.43406C20.8121 9.52094 21.2993 9.89287 21.4886 10.4607L19.5913 11.0932ZM19.962 11.4068L19.6332 13.3796C20.6957 13.5567 21.5375 13.0097 21.98 12.4566L20.4182 11.2072L18.8565 9.95783C19.0708 9.68993 19.5705 9.314 20.2908 9.43406L19.962 11.4068ZM20.4182 11.2072L22.0689 12.3366L23.181 10.7111L21.5304 9.58175L19.8798 8.45238L18.7676 10.0779L20.4182 11.2072ZM21.5304 9.58175L19.8073 10.5971L20.7484 12.1941L22.4715 11.1787L24.1946 10.1633L23.2535 8.56636L21.5304 9.58175ZM22.4715 11.1787L20.7565 12.2077C21.1882 12.9272 21.9679 13.4068 22.8707 13.4068V11.4068V9.40684C23.4314 9.40684 23.9259 9.71536 24.1865 10.1497L22.4715 11.1787ZM22.8707 11.4068V13.4068H25.4373V11.4068V9.40684H22.8707V11.4068ZM25.4373 11.4068L23.7223 10.3779C23.5793 10.6162 23.4339 10.8349 23.2599 11.0959L24.924 12.2053L26.5881 13.3147C26.7563 13.0624 26.9531 12.7678 27.1522 12.4358L25.4373 11.4068ZM25.9506 10.5228V8.52281H23.1559V10.5228V12.5228H25.9506V10.5228ZM23.1559 10.5228L24.8817 9.51201L23.7125 7.51581L21.9867 8.52662L20.2609 9.53742L21.4301 11.5336L23.1559 10.5228ZM21.9867 8.52662L23.7017 7.49762C23.27 6.77808 22.4903 6.29848 21.5875 6.29848V8.29848V10.2985C21.0268 10.2985 20.5323 9.98998 20.2717 9.55561L21.9867 8.52662ZM21.5875 8.29848V6.29848C20.9511 6.29848 20.0275 6.54525 19.4732 7.46911L21.1882 8.4981L22.9032 9.52709C22.7415 9.79661 22.4987 10.0165 22.2119 10.1523C21.9467 10.2779 21.7161 10.2985 21.5875 10.2985V8.29848ZM21.1882 8.4981L19.5344 7.37348L18.5648 8.79933L20.2186 9.92395L21.8725 11.0486L22.8421 9.62272L21.1882 8.4981ZM20.2186 9.92395L22.1304 9.33653L20.562 4.23197L18.6502 4.81939L16.7384 5.40681L18.3068 10.5114L20.2186 9.92395ZM18.6502 4.81939L20.5732 4.26995C20.2122 3.00626 19.0849 2.58416 18.4768 2.49729L18.1939 4.47719L17.9111 6.45708C17.7501 6.43409 17.5446 6.37288 17.3334 6.22594C17.1098 6.07041 16.8477 5.79069 16.7271 5.36883L18.6502 4.81939ZM18.1939 4.47719V2.47719C17.1341 2.47719 16.1258 3.18065 15.8146 4.26995L17.7376 4.81939L19.6607 5.36883C19.5544 5.74082 19.3321 6.01104 19.1011 6.18178C18.8728 6.35053 18.5623 6.47719 18.1939 6.47719V4.47719ZM17.7376 4.81939L15.8166 4.26284L13.1645 13.4168L15.0856 13.9734L17.0066 14.5299L19.6586 5.37594L17.7376 4.81939ZM15.0856 13.9734L16.9479 13.2443L14.0677 5.8869L12.2053 6.61597L10.3429 7.34504L13.2232 14.7025L15.0856 13.9734ZM12.2053 6.61597L14.1027 5.98351C13.7592 4.95312 12.7923 4.3308 11.8061 4.3308V6.3308V8.3308C11.1621 8.3308 10.5374 7.93661 10.308 7.24842L12.2053 6.61597ZM11.8061 6.3308V4.3308C11.4168 4.3308 10.9597 4.41642 10.5204 4.67998C10.0762 4.94654 9.77617 5.31963 9.58947 5.69303L11.3783 6.58745L13.1672 7.48188C13.066 7.68417 12.8801 7.92894 12.5784 8.10995C12.2818 8.28795 11.9958 8.3308 11.8061 8.3308V6.3308ZM11.3783 6.58745L9.59642 5.67926L7.34357 10.0994L9.12547 11.0076L10.9074 11.9158L13.1602 7.49565L11.3783 6.58745ZM9.12547 11.0076V9.0076H4.59125V11.0076V13.0076H9.12547V11.0076ZM4.59125 11.0076L6.34521 10.0465C5.38926 8.30194 5.23935 6.85114 5.57324 5.68252L3.65019 5.13308L1.72714 4.58364C1.03442 7.00817 1.51188 9.54977 2.8373 11.9687L4.59125 11.0076ZM3.65019 5.13308L5.56806 5.70034C5.97618 4.32048 7.29949 2.94106 9.18251 2.94106V0.941064V-1.05894C5.13397 -1.05894 2.52191 1.89625 1.73232 4.56582L3.65019 5.13308ZM9.18251 0.941064V2.94106C9.70121 2.94106 10.303 3.05359 10.983 3.28808L11.635 1.39734L12.287 -0.493408C11.313 -0.829257 10.2608 -1.05894 9.18251 -1.05894V0.941064ZM11.635 1.39734L10.9412 3.27315C11.857 3.61188 12.5497 3.97204 13.0056 4.23898C13.2331 4.37216 13.4036 4.48331 13.5168 4.5596C13.5755 4.59917 13.6169 4.62808 13.6602 4.65791C13.6751 4.66821 13.7112 4.69317 13.7472 4.71664C13.7617 4.72612 13.8085 4.75662 13.8683 4.79036C13.8954 4.80568 13.9623 4.84289 14.0511 4.88189C14.0956 4.90143 14.1749 4.93446 14.2772 4.96543C14.3571 4.9896 14.5731 5.05133 14.8574 5.05133V3.05133V1.05133C15.1413 1.05133 15.3567 1.11295 15.4359 1.13691C15.5375 1.16766 15.6159 1.20037 15.6595 1.21948C15.7463 1.25762 15.8107 1.29356 15.8349 1.30718C15.8886 1.33753 15.9273 1.36297 15.9316 1.36579C15.9472 1.37593 15.9544 1.38115 15.9321 1.36577C15.9009 1.34425 15.8346 1.29808 15.7525 1.24274C15.5841 1.12921 15.3411 0.971229 15.0267 0.787162C14.399 0.419598 13.4947 -0.0472454 12.3288 -0.478469L11.635 1.39734ZM14.8574 3.05133L13.577 4.58777C14.4898 5.34843 15.7953 5.34843 16.7081 4.58777L15.4278 3.05133L14.1474 1.51489C14.4051 1.30011 14.7539 1.15827 15.1426 1.15827C15.5312 1.15827 15.88 1.30011 16.1378 1.51489L14.8574 3.05133ZM15.4278 3.05133C16.6722 4.61698 16.6719 4.61728 16.6715 4.61758C16.6714 4.61767 16.671 4.61796 16.6708 4.61815C16.6703 4.61853 16.6698 4.6189 16.6694 4.61925C16.6685 4.61995 16.6677 4.6206 16.6669 4.6212C16.6654 4.6224 16.6641 4.62339 16.6631 4.62417C16.6611 4.62573 16.6602 4.62647 16.6602 4.62642C16.6604 4.6263 16.6647 4.62302 16.673 4.6168C16.6898 4.60435 16.7229 4.58017 16.7721 4.54613C16.8706 4.47802 17.0332 4.3707 17.2582 4.23898C17.7084 3.97536 18.4056 3.61555 19.3357 3.27618L18.6502 1.39734L17.9647 -0.481506C16.7845 -0.0509165 15.8705 0.416271 15.2371 0.787162C14.9202 0.972694 14.6729 1.13451 14.4969 1.25621C14.4089 1.31708 14.3386 1.36798 14.2863 1.40688C14.2601 1.42634 14.2385 1.4428 14.2213 1.45601C14.2127 1.46262 14.2052 1.46842 14.1989 1.47337C14.1957 1.47585 14.1928 1.47812 14.1902 1.48017C14.1889 1.4812 14.1877 1.48217 14.1865 1.48309C14.186 1.48355 14.1854 1.48399 14.1848 1.48443C14.1846 1.48464 14.1842 1.48496 14.184 1.48507C14.1837 1.48538 14.1833 1.48568 15.4278 3.05133ZM18.6502 1.39734L19.3595 3.26733C19.9582 3.04023 20.5448 2.94106 21.1027 2.94106V0.941064V-1.05894C20.0636 -1.05894 18.9961 -0.872926 17.9409 -0.472657L18.6502 1.39734ZM21.1027 0.941064V2.94106C22.9629 2.94106 24.3109 4.32693 24.7171 5.70034L26.635 5.13308L28.5528 4.56582C27.7613 1.8898 25.117 -1.05894 21.1027 -1.05894V0.941064ZM26.635 5.13308L24.7157 5.69562C25.0248 6.75015 24.9109 8.05909 24.1458 9.66086L25.9506 10.5228L27.7553 11.3848C28.8154 9.16525 29.2147 6.82399 28.5542 4.57054L26.635 5.13308Z" fill="black" mask="url(#path-1-inside-1_305_108399)"/>
</svg>
