<svg width="24" height="24" viewBox="0 0 24 24" fill="none" xmlns="http://www.w3.org/2000/svg">
<path d="M23.3555 10.4388C23.3547 10.4383 23.3542 10.4376 23.3536 10.437L13.5626 0.647344C13.1452 0.229781 12.5903 0 12.0001 0C11.4099 0 10.8551 0.229781 10.4376 0.647297L0.651548 10.432C0.648266 10.4353 0.644797 10.4388 0.641703 10.4421C-0.215352 11.304 -0.213852 12.7023 0.645922 13.562C1.03868 13.955 1.55726 14.1824 2.11199 14.2064C2.13468 14.2086 2.15742 14.2096 2.1803 14.2096H2.57034V21.4141C2.57034 22.84 3.73061 24 5.1566 24H8.98719C9.37559 24 9.69038 23.685 9.69038 23.2968V17.6484C9.69038 16.9979 10.2198 16.4687 10.8704 16.4687H13.1298C13.7805 16.4687 14.3097 16.9979 14.3097 17.6484V23.2969C14.3097 23.685 14.6245 24 15.0129 24H18.8435C20.2696 24 21.4297 22.84 21.4297 21.4142V14.2097H21.7916C22.3816 14.2097 22.9365 13.9799 23.3542 13.5622C24.2149 12.7013 24.2152 11.3003 23.3554 10.4388L23.3555 10.4388ZM22.3596 12.568C22.2852 12.6428 22.1967 12.7022 22.0992 12.7426C22.0017 12.783 21.8971 12.8037 21.7916 12.8035H20.7265C20.3381 12.8035 20.0233 13.1182 20.0233 13.5066V21.4142C20.0233 22.0646 19.4941 22.5938 18.8434 22.5938H15.7161V17.6484C15.7161 16.2226 14.5559 15.0624 13.1298 15.0624H10.8705C9.44431 15.0624 8.28404 16.2226 8.28404 17.6484V22.5938H5.15669C4.50619 22.5938 3.97677 22.0645 3.97677 21.4142V13.5066C3.97677 13.1182 3.66198 12.8034 3.27358 12.8034H2.2268C2.21583 12.8027 2.20484 12.8022 2.19384 12.8019C1.98434 12.7983 1.78787 12.7152 1.64066 12.5677C1.32751 12.2546 1.32751 11.7451 1.64066 11.4318C1.6408 11.4318 1.6408 11.4316 1.64099 11.4314L1.64155 11.4308L11.4322 1.64156C11.5066 1.5667 11.5951 1.50736 11.6926 1.46696C11.7901 1.42657 11.8946 1.40593 12.0001 1.40625C12.2146 1.40625 12.4162 1.48973 12.568 1.64156L22.3565 11.4289L22.3611 11.4333C22.6726 11.747 22.672 12.2555 22.3596 12.568Z" fill="#227BD7"/>
</svg>
