<svg width="24" height="24" viewBox="0 0 24 24" fill="none" xmlns="http://www.w3.org/2000/svg">
<g clip-path="url(#clip0_305_108395)">
<path d="M12 0C5.37831 0 0 5.37831 0 12C0 18.6217 5.37831 24 12 24C18.6217 24 24 18.6217 24 12C24 5.37831 18.6217 0 12 0ZM12 22.959C5.95663 22.959 1.04096 18.0434 1.04096 12C1.04096 5.95663 5.95663 1.04096 12 1.04096C18.0434 1.04096 22.959 5.95663 22.959 12C22.959 18.0434 18.0434 22.959 12 22.959Z" fill="black"/>
<path d="M18.2464 9.3975H14.6031V5.75412C14.6031 5.46497 14.3717 5.23364 14.0826 5.23364H9.91871C9.62956 5.23364 9.39823 5.46497 9.39823 5.75412V9.3975H5.75486C5.4657 9.3975 5.23438 9.62882 5.23438 9.91798V14.0818C5.23438 14.371 5.4657 14.6023 5.75486 14.6023H9.39823V18.2457C9.39823 18.5348 9.62956 18.7662 9.91871 18.7662H14.0826C14.3717 18.7662 14.6031 18.5348 14.6031 18.2457V14.6023H18.2464C18.5356 14.6023 18.7669 14.371 18.7669 14.0818V9.91798C18.738 9.62882 18.5067 9.3975 18.2464 9.3975ZM17.7549 13.5614H14.0826C13.7934 13.5614 13.5621 13.7927 13.5621 14.0818V17.7252H10.4392V14.0818C10.4392 13.7927 10.2079 13.5614 9.91871 13.5614H6.27534V10.4385H9.91871C10.2079 10.4385 10.4392 10.2071 10.4392 9.91798V6.27461H13.591V9.91798C13.591 10.2071 13.8223 10.4385 14.1115 10.4385H17.7549V13.5614Z" fill="black"/>
</g>
<defs>
<clipPath id="clip0_305_108395">
<rect width="24" height="24" fill="white"/>
</clipPath>
</defs>
</svg>
