<svg width="24" height="24" viewBox="0 0 24 24" fill="none" xmlns="http://www.w3.org/2000/svg">
<g clip-path="url(#clip0_305_108401)">
<path d="M3.59705 12.3272H3.60785C3.78566 12.3273 3.96126 12.2878 4.12196 12.2118C4.28266 12.1357 4.42444 12.0248 4.53705 11.8872L5.59945 10.588V12.8856C5.58145 13.3524 5.37705 15.6 3.20705 15.6C3.10096 15.6 2.99922 15.6421 2.92421 15.7172C2.84919 15.7922 2.80705 15.8939 2.80705 16C2.80705 16.1061 2.84919 16.2078 2.92421 16.2828C2.99922 16.3579 3.10096 16.4 3.20705 16.4C5.36705 16.4 5.57985 18.652 5.60025 19.1156V22.8C5.60025 23.1183 5.72668 23.4235 5.95172 23.6485C6.17677 23.8736 6.48199 24 6.80025 24H22.1995C22.5726 24.0017 22.937 23.8868 23.2418 23.6714C23.5466 23.4561 23.7765 23.1509 23.8996 22.7986C24.0226 22.4463 24.0326 22.0643 23.9282 21.7061C23.8238 21.3478 23.6101 21.031 23.3171 20.8C23.5296 20.6338 23.7016 20.4213 23.8198 20.1787C23.9381 19.9362 23.9995 19.6699 23.9995 19.4C23.9995 19.1301 23.9381 18.8638 23.8198 18.6213C23.7016 18.3787 23.5296 18.1662 23.3171 18C23.6101 17.769 23.8238 17.4522 23.9282 17.0939C24.0326 16.7357 24.0226 16.3537 23.8996 16.0014C23.7765 15.6491 23.5466 15.3439 23.2418 15.1286C22.937 14.9132 22.5726 14.7983 22.1995 14.8H18.3995V10.5892L19.4647 11.8908C19.5774 12.0277 19.7192 12.1378 19.8796 12.2133C20.0401 12.2889 20.2153 12.3279 20.3927 12.3276H20.4035C20.5811 12.3266 20.7563 12.2859 20.9162 12.2085C21.0761 12.131 21.2166 12.0188 21.3275 11.88L23.5275 9.1328C23.6933 8.92642 23.7863 8.67097 23.7919 8.40624C23.7975 8.14151 23.7153 7.88238 23.5583 7.6692L20.1499 3.0188C19.6979 2.40568 19.1074 1.90803 18.4267 1.5664L15.8827 0.2924C15.8479 0.2752 15.8115 0.2628 15.7759 0.2472H15.7719C15.4131 0.0861936 15.0247 0.00199119 14.6315 0L9.36745 0C8.97545 0.0016 8.58745 0.0852 8.22945 0.2448L8.22225 0.248C8.18545 0.264 8.14865 0.2768 8.11225 0.2944L5.57265 1.5664C4.89153 1.90806 4.30091 2.40602 3.84905 3.0196L0.441851 7.666C0.284467 7.87904 0.201988 8.13816 0.20727 8.40297C0.212552 8.66778 0.305298 8.92341 0.471051 9.13L2.67105 11.8772C2.78192 12.0167 2.92266 12.1295 3.08292 12.2074C3.24318 12.2853 3.41887 12.3262 3.59705 12.3272ZM4.79465 16C5.3306 15.6724 5.75255 15.1876 6.00305 14.6116C6.2537 15.1876 6.67579 15.6724 7.21185 16C6.67579 16.3276 6.2537 16.8124 6.00305 17.3884C5.75255 16.8124 5.3306 16.3276 4.79465 16ZM6.39945 22.8V22H10.8199C10.8092 22.0662 10.8024 22.133 10.7995 22.2C10.7995 22.556 10.9055 22.9044 11.1043 23.2H6.79945C6.69336 23.2 6.59162 23.1579 6.51661 23.0828C6.44159 23.0078 6.39945 22.9061 6.39945 22.8ZM23.1995 22.2C23.1995 22.4652 23.0941 22.7196 22.9066 22.9071C22.719 23.0946 22.4647 23.2 22.1995 23.2H12.5995C12.3342 23.2 12.0799 23.0946 11.8923 22.9071C11.7048 22.7196 11.5995 22.4652 11.5995 22.2C11.5995 21.9348 11.7048 21.6804 11.8923 21.4929C12.0799 21.3054 12.3342 21.2 12.5995 21.2H22.1995C22.4647 21.2 22.719 21.3054 22.9066 21.4929C23.0941 21.6804 23.1995 21.9348 23.1995 22.2ZM23.1995 19.4C23.1995 19.6652 23.0941 19.9196 22.9066 20.1071C22.719 20.2946 22.4647 20.4 22.1995 20.4H12.5995C12.3342 20.4 12.0799 20.2946 11.8923 20.1071C11.7048 19.9196 11.5995 19.6652 11.5995 19.4C11.5995 19.1348 11.7048 18.8804 11.8923 18.6929C12.0799 18.5054 12.3342 18.4 12.5995 18.4H22.1995C22.4647 18.4 22.719 18.5054 22.9066 18.6929C23.0941 18.8804 23.1995 19.1348 23.1995 19.4ZM23.1995 16.6C23.1995 16.8652 23.0941 17.1196 22.9066 17.3071C22.719 17.4946 22.4647 17.6 22.1995 17.6H12.5995C12.3342 17.6 12.0799 17.4946 11.8923 17.3071C11.7048 17.1196 11.5995 16.8652 11.5995 16.6C11.5995 16.3348 11.7048 16.0804 11.8923 15.8929C12.0799 15.7054 12.3342 15.6 12.5995 15.6H22.1995C22.4647 15.6 22.719 15.7054 22.9066 15.8929C23.0941 16.0804 23.1995 16.3348 23.1995 16.6ZM22.9035 8.63L20.7035 11.3784C20.6663 11.4246 20.6194 11.4619 20.566 11.4877C20.5127 11.5135 20.4543 11.5271 20.3951 11.5276C20.3355 11.5265 20.2769 11.5131 20.2229 11.4882C20.1688 11.4632 20.1205 11.4274 20.0811 11.3828L19.7675 10.9992L22.4519 7.5108L22.9143 8.1416C22.9667 8.21276 22.994 8.29928 22.9921 8.38764C22.9901 8.476 22.959 8.56122 22.9035 8.63ZM11.9995 3.6C13.8527 3.6 15.4371 2.5744 15.8743 1.1828L16.5971 1.5448C15.9967 3.2164 14.1195 4.4 11.9995 4.4C9.87945 4.4 8.00225 3.2164 7.40185 1.5448L8.12505 1.1828C8.56185 2.5744 10.1463 3.6 11.9995 3.6ZM14.6315 0.8C14.8009 0.800645 14.9696 0.822822 15.1335 0.866C14.8447 1.9716 13.5403 2.8 11.9995 2.8C10.4587 2.8 9.15425 1.9716 8.86545 0.866C9.02945 0.8228 9.19785 0.8008 9.36745 0.8H14.6315ZM4.49385 3.4932C4.87031 2.98106 5.36267 2.56532 5.93065 2.28L6.68385 1.9028C7.43105 3.84 9.58145 5.2 11.9995 5.2C14.4175 5.2 16.5679 3.84 17.3151 1.9044L18.0687 2.282C18.6361 2.56667 19.1283 2.9814 19.5051 3.4924L21.9595 6.84L19.2475 10.3644L19.0195 10.0844C18.9152 9.95655 18.774 9.86405 18.6151 9.81958C18.4563 9.77511 18.2875 9.78084 18.132 9.83598C17.9766 9.89112 17.8419 9.99298 17.7466 10.1276C17.6513 10.2622 17.5999 10.423 17.5995 10.588V14.8H12.5995C12.2263 14.7983 11.8619 14.9132 11.5571 15.1286C11.2523 15.3439 11.0224 15.6491 10.8993 16.0014C10.7763 16.3537 10.7663 16.7357 10.8707 17.0939C10.9751 17.4522 11.1888 17.769 11.4819 18C11.2693 18.1662 11.0973 18.3787 10.9791 18.6213C10.8608 18.8638 10.7994 19.1301 10.7994 19.4C10.7994 19.6699 10.8608 19.9362 10.9791 20.1787C11.0973 20.4213 11.2693 20.6338 11.4819 20.8C11.3362 20.9132 11.2089 21.0481 11.1043 21.2H6.39945V19.2184C6.39945 19.212 6.40305 19.2064 6.40305 19.2C6.40305 19.0856 6.43025 16.4 8.79945 16.4C8.90554 16.4 9.00728 16.3579 9.08229 16.2828C9.15731 16.2078 9.19945 16.1061 9.19945 16C9.19945 15.8939 9.15731 15.7922 9.08229 15.7172C9.00728 15.6421 8.90554 15.6 8.79945 15.6C6.44185 15.6 6.40345 12.9136 6.40305 12.8C6.40305 12.7936 6.39985 12.788 6.39945 12.7816V10.588C6.39877 10.4235 6.34738 10.2631 6.25228 10.1289C6.15718 9.99462 6.023 9.89295 5.86801 9.83771C5.71303 9.78248 5.54479 9.77638 5.38621 9.82024C5.22763 9.86409 5.08643 9.95578 4.98185 10.0828L4.75225 10.3628L2.03945 6.84L4.49385 3.4932ZM1.09545 8.6296C1.03999 8.56058 1.00899 8.4751 1.00733 8.38657C1.00567 8.29804 1.03342 8.21146 1.08625 8.1404L1.54785 7.5108L4.23185 10.9988L3.91905 11.3812C3.87906 11.4254 3.83059 11.4612 3.77651 11.4864C3.72243 11.5115 3.66385 11.5255 3.60425 11.5276C3.54493 11.5273 3.48644 11.5137 3.43306 11.4878C3.37969 11.4619 3.33281 11.4244 3.29585 11.378L1.09545 8.6296Z" fill="black"/>
<path d="M7.59922 10.8C9.95682 10.8 9.99522 13.4864 9.99562 13.6C9.99562 13.7061 10.0378 13.8079 10.1128 13.8829C10.1878 13.9579 10.2895 14 10.3956 14C10.5017 14 10.6034 13.9579 10.6785 13.8829C10.7535 13.8079 10.7956 13.7061 10.7956 13.6C10.7956 13.4856 10.8228 10.8 13.1916 10.8C13.2977 10.8 13.3994 10.7579 13.4745 10.6829C13.5495 10.6079 13.5916 10.5061 13.5916 10.4C13.5916 10.294 13.5495 10.1922 13.4745 10.1172C13.3994 10.0422 13.2977 10 13.1916 10C10.834 10 10.796 7.31365 10.7956 7.20005C10.7956 7.09396 10.7535 6.99222 10.6785 6.91721C10.6034 6.84219 10.5017 6.80005 10.3956 6.80005C10.2895 6.80005 10.1878 6.84219 10.1128 6.91721C10.0378 6.99222 9.99562 7.09396 9.99562 7.20005C9.99562 7.31445 9.96842 10 7.59922 10C7.49313 10 7.39139 10.0422 7.31638 10.1172C7.24136 10.1922 7.19922 10.294 7.19922 10.4C7.19922 10.5061 7.24136 10.6079 7.31638 10.6829C7.39139 10.7579 7.49313 10.8 7.59922 10.8ZM10.3956 9.01165C10.6461 9.58766 11.0681 10.0725 11.604 10.4C11.0681 10.7276 10.6461 11.2124 10.3956 11.7884C10.145 11.2124 9.72288 10.7276 9.18682 10.4C9.72288 10.0725 10.145 9.58769 10.3956 9.01165Z" fill="black"/>
</g>
<defs>
<clipPath id="clip0_305_108401">
<rect width="24" height="24" fill="white"/>
</clipPath>
</defs>
</svg>
